<svg width="32" height="32" xmlns="http://www.w3.org/2000/svg">
 <title/>
 <desc/>

 <g>
  <title>background</title>
  <rect fill="none" id="canvas_background" height="402" width="582" y="-1" x="-1"/>
 </g>
 <g>
  <title>Layer 1</title>
  <path fill="#ffffff" id="clipboard-list" d="m12,5l0,-1.00209c0,-1.09965 0.89762,-1.99791 2.00488,-1.99791l0.99024,0c1.11098,0 2.00488,0.8945 2.00488,1.99791l0,1.00209l2.00442,0c0.55074,0 0.99558,0.44725 0.99558,0.99896l0,1.00208c0,0.5563 -0.44574,0.99896 -0.99558,0.99896l-9.00884,0c-0.55074,0 -0.99558,-0.44725 -0.99558,-0.99896l0,-1.00208c0,-0.5563 0.44574,-0.99896 0.99558,-0.99896l2.00442,0l0,0zm-1,-1l-0.99724,0c-1.10447,0 -2.00013,0.89128 -2.00275,2l-1.00259,0c-1.10314,0 -1.99742,0.88976 -1.99742,2.00359l0,20.99282c0,1.10655 0.89093,2.00359 1.99742,2.00359l15.00516,0c1.10314,0 1.99742,-0.88976 1.99742,-2.00359l0,-20.99282c0,-1.10655 -0.89093,-2.00359 -1.99742,-2.00359l-1.00259,0l0,0c-0.00262,-1.10502 -0.89516,-2 -2.00275,-2l-0.99724,0c-0.0009,-1.65701 -1.35023,-3 -3.00925,-3l-0.9815,0c-1.66141,0 -3.00835,1.33813 -3.00925,3l0,0l0,0zm9.99999,3l1.00005,0c0.54525,0 0.99996,0.44909 0.99996,1.00307l0,20.99386c0,0.56415 -0.4477,1.00307 -0.99996,1.00307l-15.00008,0c-0.54525,0 -0.99996,-0.44909 -0.99996,-1.00307l0,-20.99386c0,-0.56415 0.4477,-1.00307 0.99996,-1.00307l1.00005,0c0.00262,1.10502 0.89516,2 2.00275,2l8.99448,0c1.10447,0 2.00013,-0.89128 2.00275,-2l0,0l0,0zm-6.49999,-2c0.27614,0 0.5,-0.22386 0.5,-0.5c0,-0.27614 -0.22386,-0.5 -0.5,-0.5c-0.27614,0 -0.5,0.22386 -0.5,0.5c0,0.27614 0.22386,0.5 0.5,0.5l0,0zm-1.5,9l0,1l8,0l0,-1l-8,0l0,0zm-5,-1l0,3l3,0l0,-3l-3,0l0,0zm1,1l0,1l1,0l0,-1l-1,0l0,0zm-1,4l0,3l3,0l0,-3l-3,0l0,0zm1,1l0,1l1,0l0,-1l-1,0l0,0zm4,0l0,1l8,0l0,-1l-8,0l0,0zm-5,4l0,3l3,0l0,-3l-3,0l0,0zm1,1l0,1l1,0l0,-1l-1,0l0,0zm4,0l0,1l8,0l0,-1l-8,0l0,0z"/>
 </g>
</svg>